<svg width="19" height="22" viewBox="0 0 19 22" fill="none" xmlns="http://www.w3.org/2000/svg">
<path d="M13.485 10.7345C14.7052 11.4291 15.6384 12.3824 16.3466 13.5657C17.1027 14.8352 17.5573 16.2149 17.7631 17.6664C17.897 18.6149 17.9401 19.5778 17.9975 20.5359C18.031 21.0772 17.72 21.3694 17.1745 21.3694C11.8723 21.3694 6.57019 21.3694 1.26806 21.3694C0.712958 21.3694 0.421054 21.082 0.425839 20.5215C0.440195 18.5909 0.684247 16.7035 1.4164 14.9023C2.12463 13.1633 3.2109 11.7405 4.85705 10.7824C4.88097 10.768 4.9049 10.7441 4.92883 10.7249C2.4931 8.15722 3.03862 4.23379 5.44086 2.23136C7.72345 0.319946 11.0636 0.410966 13.2314 2.45172C15.447 4.53559 15.8106 8.19554 13.485 10.7345ZM16.5189 19.8988C16.428 17.9682 16.1265 16.1047 15.1551 14.4136C14.5043 13.2783 13.6046 12.4064 12.4131 11.8363C12.2695 11.7645 12.1642 11.7693 12.0207 11.8459C10.14 12.8423 8.25463 12.828 6.37878 11.8315C6.25915 11.7693 6.16344 11.7549 6.04381 11.8172C5.11067 12.2627 4.33066 12.895 3.71814 13.7286C2.82807 14.9358 2.35911 16.3107 2.12463 17.7766C2.01457 18.4712 1.95714 19.1802 1.87101 19.8988C6.77596 19.8988 11.6331 19.8988 16.5189 19.8988ZM13.6046 6.72007C13.6046 4.29607 11.6378 2.31759 9.21648 2.31759C6.7951 2.31759 4.81876 4.28649 4.81876 6.71048C4.81876 9.13448 6.78553 11.113 9.2069 11.113C11.6283 11.1178 13.6046 9.14406 13.6046 6.72007Z" fill="black" stroke="black" stroke-width="0.5" stroke-miterlimit="10"/>
</svg>
