<svg width="25" height="22" viewBox="0 0 25 22" fill="none" xmlns="http://www.w3.org/2000/svg">
<path d="M1.20485 7.25932C1.27976 6.80935 1.32383 6.35496 1.4384 5.9138C2.04213 3.60216 3.395 1.91255 5.70414 1.18464C8.17193 0.403802 10.3224 1.03465 12.1028 2.91396C12.3143 3.13454 12.4994 3.37717 12.7065 3.62422C12.9092 3.386 13.0943 3.14777 13.3014 2.92279C14.2841 1.86402 15.4563 1.12729 16.9061 0.942009C19.1447 0.655259 21.0617 1.33905 22.5335 3.06396C24.0054 4.78886 24.4373 6.82699 24.0979 9.04158C23.882 10.4444 23.243 11.6664 22.4058 12.7914C21.3085 14.2692 19.9688 15.5133 18.5895 16.7176C16.9634 18.1337 15.3241 19.541 13.6892 20.9483C13.059 21.4909 12.3848 21.513 11.7811 20.9924C9.64819 19.1396 7.51091 17.2956 5.40448 15.4118C4.33364 14.4589 3.37738 13.3913 2.58857 12.1826C1.84823 11.04 1.35027 9.80919 1.23569 8.44161C1.23129 8.38867 1.21366 8.34015 1.20044 8.29162C1.20485 7.94752 1.20485 7.60342 1.20485 7.25932ZM12.7021 20.0086C12.7594 19.9645 12.8078 19.9292 12.8519 19.8895C14.6719 18.3146 16.5007 16.7529 18.3031 15.1648C19.5634 14.0531 20.762 12.8752 21.6919 11.4635C22.582 10.118 23.0183 8.65337 22.8156 7.02992C22.5952 5.27854 21.8461 3.82715 20.2949 2.91396C18.8495 2.06254 17.3204 1.95666 15.7868 2.6978C14.879 3.13454 14.2092 3.8448 13.6451 4.66975C13.5658 4.78886 13.4909 4.91239 13.4072 5.02709C13.037 5.53441 12.376 5.53 12.0014 5.0315C11.6753 4.59476 11.3756 4.13155 11.0011 3.73451C9.79802 2.45958 8.30854 1.96548 6.59431 2.33605C4.74347 2.7375 3.52721 3.91097 2.91467 5.67558C2.20077 7.72694 2.54009 9.65919 3.7211 11.4591C4.45263 12.5752 5.3516 13.5546 6.33872 14.4413C7.96922 15.9103 9.63497 17.3441 11.2831 18.7867C11.7546 19.1969 12.2261 19.5984 12.7021 20.0086Z" fill="black" stroke="black" stroke-width="0.5" stroke-miterlimit="10"/>
</svg>
